<?xml version="1.0" encoding="UTF-8"?>
<svg xmlns="http://www.w3.org/2000/svg" width="700" height="700" viewBox="0 0 700 700">
<rect x="250.000000" y="40.000000" width="160.000000" height="60.000000" rx="12.000000" ry="12.000000" fill="rgb(255,255,255)" stroke="rgb(0,0,0)" stroke-width="2.000000"/>
<text x="330.000000" y="70.000000" font-family="Arial" font-size="16" text-anchor="middle" dominant-baseline="middle" fill="rgb(0,0,0)">Start</text>
<rect x="250.000000" y="140.000000" width="160.000000" height="60.000000" fill="rgb(255,255,255)" stroke="rgb(0,0,0)" stroke-width="2.000000"/>
<text x="330.000000" y="170.000000" font-family="Arial" font-size="16" text-anchor="middle" dominant-baseline="middle" fill="rgb(0,0,0)">Read Input</text>
<line x1="330.000000" y1="100.000000" x2="330.000000" y2="140.000000" stroke="rgb(0,0,0)" stroke-width="2.000000"/>
<line x1="330.000000" y1="140.000000" x2="324.246894" y2="129.469009" stroke="rgb(0,0,0)" stroke-width="2.000000"/>
<line x1="330.000000" y1="140.000000" x2="335.753106" y2="129.469009" stroke="rgb(0,0,0)" stroke-width="2.000000"/>
<polygon points="320,260 390,310 320,360 250,310" fill="rgb(255,255,255)" stroke="rgb(0,0,0)" stroke-width="2.000000"/>
<text x="320.000000" y="310.000000" font-family="Arial" font-size="16" text-anchor="middle" dominant-baseline="middle" fill="rgb(0,0,0)">x > 0 ?</text>
<line x1="330.000000" y1="200.000000" x2="320.000000" y2="260.000000" stroke="rgb(0,0,0)" stroke-width="2.000000"/>
<line x1="320.000000" y1="260.000000" x2="316.056455" y2="248.666490" stroke="rgb(0,0,0)" stroke-width="2.000000"/>
<line x1="320.000000" y1="260.000000" x2="327.406113" y2="250.558100" stroke="rgb(0,0,0)" stroke-width="2.000000"/>
<rect x="250.000000" y="420.000000" width="160.000000" height="60.000000" fill="rgb(255,255,255)" stroke="rgb(0,0,0)" stroke-width="2.000000"/>
<text x="330.000000" y="450.000000" font-family="Arial" font-size="16" text-anchor="middle" dominant-baseline="middle" fill="rgb(0,0,0)">Print Result</text>
<line x1="320.000000" y1="360.000000" x2="330.000000" y2="420.000000" stroke="rgb(0,0,0)" stroke-width="2.000000"/>
<line x1="330.000000" y1="420.000000" x2="322.593887" y2="410.558100" stroke="rgb(0,0,0)" stroke-width="2.000000"/>
<line x1="330.000000" y1="420.000000" x2="333.943545" y2="408.666490" stroke="rgb(0,0,0)" stroke-width="2.000000"/>
<rect x="250.000000" y="560.000000" width="160.000000" height="60.000000" rx="12.000000" ry="12.000000" fill="rgb(255,255,255)" stroke="rgb(0,0,0)" stroke-width="2.000000"/>
<text x="330.000000" y="590.000000" font-family="Arial" font-size="16" text-anchor="middle" dominant-baseline="middle" fill="rgb(0,0,0)">End</text>
<line x1="330.000000" y1="480.000000" x2="330.000000" y2="560.000000" stroke="rgb(0,0,0)" stroke-width="2.000000"/>
<line x1="330.000000" y1="560.000000" x2="324.246894" y2="549.469009" stroke="rgb(0,0,0)" stroke-width="2.000000"/>
<line x1="330.000000" y1="560.000000" x2="335.753106" y2="549.469009" stroke="rgb(0,0,0)" stroke-width="2.000000"/>
</svg>
